HIERARCHY
ROOT Hips
{
  OFFSET 1.07747 95.9575 10.2739
  CHANNELS 6 Xposition Yposition Zposition Zrotation Xrotation Yrotation
  JOINT Spine
  {
    OFFSET 7.53374 0.593561 1.09813e-05
    CHANNELS 6 Xposition Yposition Zposition Zrotation Xrotation Yrotation
    JOINT Spine1
    {
      OFFSET 13.0694 -0.00893606 0
      CHANNELS 6 Xposition Yposition Zposition Zrotation Xrotation Yrotation
      JOINT Spine2
      {
        OFFSET 12.2366 0.00169269 0
        CHANNELS 6 Xposition Yposition Zposition Zrotation Xrotation Yrotation
        JOINT LeftShoulder
        {
          OFFSET 17.6513 -6.97471 7.17943
          CHANNELS 6 Xposition Yposition Zposition Zrotation Xrotation Yrotation
          JOINT LeftArm
          {
            OFFSET 13.2157 0 -0.0117243
            CHANNELS 6 Xposition Yposition Zposition Zrotation Xrotation Yrotation
            JOINT LeftForeArm
            {
              OFFSET 29.1075 0 0
              CHANNELS 6 Xposition Yposition Zposition Zrotation Xrotation Yrotation
              JOINT LeftHand
              {
                OFFSET 27.7712 0.000515071 0.00134251
                CHANNELS 6 Xposition Yposition Zposition Zrotation Xrotation Yrotation
                End Site
                {
                  OFFSET 0 0 0
                }
              }
            }
          }
        }
        JOINT Neck
        {
          OFFSET 22.546 -3.80889 -0.11452
          CHANNELS 6 Xposition Yposition Zposition Zrotation Xrotation Yrotation
          JOINT Head
          {
            OFFSET 12.1557 1.8327e-05 7.99896e-05
            CHANNELS 6 Xposition Yposition Zposition Zrotation Xrotation Yrotation
            End Site
            {
              OFFSET 0 0 0
            }
          }
        }
        JOINT RightShoulder
        {
          OFFSET 17.6513 -6.97489 -7.40851
          CHANNELS 6 Xposition Yposition Zposition Zrotation Xrotation Yrotation
          JOINT RightArm
          {
            OFFSET 13.2238 0.00313059 0.00396408
            CHANNELS 6 Xposition Yposition Zposition Zrotation Xrotation Yrotation
            JOINT RightForeArm
            {
              OFFSET 29.1068 0.000261193 0.000306485
              CHANNELS 6 Xposition Yposition Zposition Zrotation Xrotation Yrotation
              JOINT RightHand
              {
                OFFSET 27.7729 -0.00476486 0.000782313
                CHANNELS 6 Xposition Yposition Zposition Zrotation Xrotation Yrotation
                End Site
                {
                  OFFSET 0 0 0
                }
              }
            }
          }
        }
      }
    }
  }
  JOINT LeftUpLeg
  {
    OFFSET -1.6965 -0.234718 9.46756
    CHANNELS 6 Xposition Yposition Zposition Zrotation Xrotation Yrotation
    JOINT LeftLeg
    {
      OFFSET 40.0569 -0.00733181 0.0261822
      CHANNELS 6 Xposition Yposition Zposition Zrotation Xrotation Yrotation
      JOINT LeftFoot
      {
        OFFSET 48.9977 0.000225704 0
        CHANNELS 6 Xposition Yposition Zposition Zrotation Xrotation Yrotation
        JOINT LeftToe
        {
          OFFSET 11.2727 22.9777 -3.05045e-05
          CHANNELS 6 Xposition Yposition Zposition Zrotation Xrotation Yrotation
          End Site
          {
            OFFSET 0 0 0
          }
        }
      }
    }
  }
  JOINT RightUpLeg
  {
    OFFSET -1.69651 -0.23477 -9.69671
    CHANNELS 6 Xposition Yposition Zposition Zrotation Xrotation Yrotation
    JOINT RightLeg
    {
      OFFSET 40.0571 0.000391223 -1.01941e-05
      CHANNELS 6 Xposition Yposition Zposition Zrotation Xrotation Yrotation
      JOINT RightFoot
      {
        OFFSET 48.9978 0.00179262 -3.35303e-05
        CHANNELS 6 Xposition Yposition Zposition Zrotation Xrotation Yrotation
        JOINT RightToe
        {
          OFFSET 11.2726 22.9778 0.000330521
          CHANNELS 6 Xposition Yposition Zposition Zrotation Xrotation Yrotation
          End Site
          {
            OFFSET 0 0 0
          }
        }
      }
    }
  }
}
MOTION
Frames:	4
Frame Time:	0.0333333
1.07747 95.9575 10.2739 150.826 62.5495 -64.8191 7.53374 0.593558 1.01944e-05 4.63994 9.0697 0.187678 13.0694 -0.00893353 -7.86439e-06 1.53146 18.0029 2.15307 12.2366 0.00169269 6.4926e-06 0.0881613 0.000824499 5.1537e-05 17.6513 -6.97472 7.17943 -171.429 -36.4071 -83.3504 13.2157 -2.69194e-06 -0.0117222 16.56 -5.60671 42.3386 29.1075 -1.30255e-06 -2.93942e-06 -70.4177 20.6854 44.7925 27.7712 0.000504558 0.00134612 112.299 -71.4959 126.06 22.546 -3.8089 -0.114519 40.1119 -25.56 0.616542 12.1557 -3.33487e-06 7.57949e-05 -48.7984 4.98119 17.017 17.6513 -6.9749 -7.40851 -173.76 -18.315 111.147 13.2238 0.00312703 0.00395055 -6.54261 31.1086 -50.9441 29.1068 0.000112064 1.66064e-06 -79.2357 1.52822 7.92742 27.7729 -0.00473726 0.000785401 -34.6045 81.4378 11.8637 -1.69651 -0.234717 9.46756 -62.3497 3.01856 -171.52 40.0568 5.57553e-05 5.13885e-07 -33.8016 0.021569 -0.0334615 48.9977 0.000237507 4.60551e-07 11.0899 -29.0777 4.75491 11.2727 22.9777 -3.54852e-05 90 -0.000172017 0.000156873 -1.6965 -0.234768 -9.6967 10.7796 -1.40323 173.775 40.0571 0.000392434 -1.39791e-06 -56.0596 0.00230853 -0.00374326 48.9978 0.00177895 -2.21831e-05 -7.71372 14.6335 0.381006 11.2726 22.9778 0.00033201 89.9999 0.00161048 0.000189346 
2.05844 92.9068 24.8221 153.944 63.0619 -66.4245 7.53374 0.593558 1.01944e-05 5.51542 7.62983 -1.00579 13.0694 -0.00893353 -7.86439e-06 3.53986 15.3579 -0.670081 12.2366 0.00169269 6.4926e-06 0.0881613 0.000824499 5.1537e-05 17.6513 -6.97472 7.17943 -171.089 -31.221 -79.0236 13.2157 -2.69194e-06 -0.0117222 17.1996 -4.89318 43.3894 29.1075 -1.30255e-06 -2.93942e-06 -75.8269 11.9712 39.3331 27.7712 0.000504558 0.00134612 144.067 -64.1291 152.748 22.546 -3.8089 -0.114519 33.9179 -20.1653 2.0054 12.1557 -3.33487e-06 7.57949e-05 -45.6297 4.85294 14.6339 17.6513 -6.9749 -7.40851 -172.894 -10.8186 100.834 13.2238 0.00312703 0.00395055 -6.52422 32.7122 -55.1473 29.1068 0.000112064 1.66064e-06 -76.6814 0.362031 1.47869 27.7729 -0.00473726 0.000785401 -43.6692 79.1392 18.6877 -1.69651 -0.234717 9.46756 -65.7231 5.39118 -173.608 40.0568 5.57553e-05 5.13885e-07 -46.3873 0.00666162 -0.0081113 48.9977 0.000237507 4.60551e-07 7.93026 -27.6936 5.64464 11.2727 22.9777 -3.54852e-05 90 -0.000163759 0.000164813 -1.6965 -0.234768 -9.6967 1.42884 -2.65867 166.185 40.0571 0.000392434 -1.39791e-06 -84.1852 0.00462132 -0.00444112 48.9978 0.00177895 -2.21831e-05 -3.78581 8.2401 -6.28902 11.2726 22.9778 0.00033201 89.9999 0.00159861 0.000185544 
3.09989 89.3536 39.3216 157.801 63.6156 -68.7077 7.53374 0.593558 1.01944e-05 6.33259 6.01165 -2.16929 13.0694 -0.00893353 -7.86439e-06 5.34366 12.3105 -3.38097 12.2366 0.00169269 6.4926e-06 0.0881613 0.000824499 5.1537e-05 17.6513 -6.97472 7.17943 -170.9 -18.2955 -75.6104 13.2157 -2.69194e-06 -0.0117222 14.6526 -7.30968 50.6577 29.1075 -1.30255e-06 -2.93942e-06 -78.3525 5.30556 24.1366 27.7712 0.000504558 0.00134612 156.665 -59.3556 160.071 22.546 -3.8089 -0.114519 30.9852 -13.6501 5.73533 12.1557 -3.33487e-06 7.57949e-05 -47.373 4.27945 10.0336 17.6513 -6.9749 -7.40851 -171.609 -1.98222 84.557 13.2238 0.00312703 0.00395055 1.69159 23.9043 -58.3843 29.1068 0.000112064 1.66064e-06 -74.623 -2.45594 -8.88852 27.7729 -0.00473726 0.000785401 -14.7112 79.4876 -4.71331 -1.69651 -0.234717 9.46756 -65.8173 7.89468 -175.844 40.0568 5.57553e-05 5.13885e-07 -64.1295 0.00780166 -0.00644076 48.9977 0.000237507 4.60551e-07 25.5851 -25.9674 6.49281 11.2727 22.9777 -3.54852e-05 90 -0.000167319 0.000161758 -1.6965 -0.234768 -9.6967 -14.9843 1.65931 163.478 40.0571 0.000392434 -1.39791e-06 -106.015 0.00634532 -0.00418654 48.9978 0.00177895 -2.21831e-05 -1.04843 5.38187 -11.1994 11.2726 22.9778 0.00033201 89.9999 0.00160708 0.000190839 
3.8139 87.3239 54.0382 162.893 63.6035 -72.9195 7.53374 0.593558 1.01944e-05 6.3771 4.10671 -2.90067 13.0694 -0.00893353 -7.86439e-06 5.4609 8.63216 -5.14044 12.2366 0.00169269 6.4926e-06 0.0881613 0.000824499 5.1537e-05 17.6513 -6.97472 7.17943 -170.993 -6.47127 -76.4088 13.2157 -2.69194e-06 -0.0117222 6.40296 -17.5517 56.3077 29.1075 -1.30255e-06 -2.93942e-06 -78.2768 1.74802 8.32853 27.7712 0.000504558 0.00134612 147.485 -61.402 150.278 22.546 -3.8089 -0.114519 29.3232 -6.67829 8.93717 12.1557 -3.33487e-06 7.57949e-05 -48.6468 4.2541 5.4105 17.6513 -6.9749 -7.40851 -170.699 7.2287 72.4993 13.2238 0.00312703 0.00395055 9.80533 12.8208 -49.5663 29.1068 0.000112064 1.66064e-06 -75.5536 -7.23294 -26.0704 27.7729 -0.00473726 0.000785401 -43.1517 84.5996 29.8337 -1.69651 -0.234717 9.46756 -57.1258 8.84095 -178.964 40.0568 5.57553e-05 5.13885e-07 -67.6621 0.00308275 -0.00411516 48.9977 0.000237507 4.60551e-07 38.3939 -24.5198 5.64483 11.2727 22.9777 -3.54852e-05 90 -0.000164982 0.000163877 -1.6965 -0.234768 -9.6967 -20.5315 3.19755 165.462 40.0571 0.000392434 -1.39791e-06 -102.65 0.00602904 -0.00428285 48.9978 0.00177895 -2.21831e-05 -4.43253 5.34513 -11.1515 11.2726 22.9778 0.00033201 89.9999 0.00161123 0.00019145 
